<svg width="197" height="40" viewBox="0 0 197 40" fill="none" xmlns="http://www.w3.org/2000/svg">
<path d="M17.1565 1.47299L13.6939 1.35561C13.6678 1.55124 13.6417 1.92293 13.6156 2.47069C13.5895 3.0054 13.5569 3.80095 13.5178 4.85733C13.4787 5.91372 13.4396 7.26354 13.4004 8.90681C13.3613 10.537 13.3157 12.5455 13.2635 14.9321L23.8469 14.7756L23.9251 1.12086L19.68 0.964358V0.24054L36.0149 0.749169V1.47299L31.8089 1.35561C31.7959 1.51211 31.7763 1.79903 31.7502 2.21637C31.7241 2.63371 31.6915 3.25319 31.6524 4.07483C31.6263 4.88342 31.5937 5.92676 31.5546 7.20485C31.5155 8.48295 31.4698 10.061 31.4177 11.939C31.3785 13.817 31.3329 16.0276 31.2807 18.5708C31.2286 21.1139 31.1764 24.0548 31.1242 27.3935H35.9366V28.1174H19.9931V27.3935H23.8078L23.8469 15.4994L13.2244 15.6559C13.1983 16.4776 13.1787 17.3253 13.1657 18.1991C13.1526 19.0729 13.1396 19.9923 13.1266 20.9574C13.1135 21.9095 13.0939 22.9202 13.0679 23.9896C13.0548 25.046 13.0418 26.1807 13.0287 27.3935H17.0586V28.1174H1.07594V27.3935H5.69273L5.81011 1.12086L0.802063 0.964358V0.24054L17.1565 0.749169V1.47299Z" fill="white"/>
<path d="M53.8169 18.1795C53.8169 18.8707 53.5952 19.4967 53.1518 20.0575C52.7084 20.6053 52.1345 21.0748 51.4303 21.466C50.7391 21.8573 49.9631 22.1703 49.1023 22.4051C48.2546 22.6268 47.4199 22.7441 46.5983 22.7572C46.5461 22.7572 46.4288 22.7507 46.2462 22.7376C46.0636 22.7246 45.8419 22.6855 45.581 22.6202C45.3202 22.542 45.0268 22.4246 44.7007 22.2681C44.3747 22.1116 44.0486 21.8834 43.7226 21.5834C43.7617 22.7441 43.866 23.7418 44.0356 24.5765C44.2182 25.3981 44.4529 26.0763 44.7398 26.611C45.0398 27.1327 45.3854 27.5174 45.7767 27.7652C46.181 28 46.6179 28.1174 47.0874 28.1174C47.3612 28.1174 47.7264 28.0261 48.1829 27.8435C48.6524 27.6609 49.1349 27.3805 49.6305 27.0023C50.1391 26.6241 50.6347 26.1415 51.1173 25.5546C51.5998 24.9678 52.0041 24.2635 52.3302 23.4419L52.8975 21.9942L53.6017 22.229L53.2887 23.1093C53.0018 23.8788 52.6236 24.6091 52.1541 25.3003C51.6846 25.9915 51.1368 26.611 50.5108 27.1588C49.8979 27.6935 49.2132 28.1239 48.4567 28.4499C47.7003 28.789 46.8917 28.9846 46.031 29.0368C44.5312 28.9846 43.2596 28.7173 42.2163 28.2347C41.1729 27.7522 40.3252 27.1392 39.6731 26.3958C39.021 25.6525 38.545 24.8243 38.245 23.9114C37.9581 22.9985 37.8147 22.079 37.8147 21.153C37.8147 20.5401 37.9059 19.875 38.0885 19.1577C38.2842 18.4273 38.5646 17.697 38.9297 16.9666C39.2949 16.2232 39.7383 15.506 40.26 14.8147C40.7947 14.1235 41.3946 13.5106 42.0598 12.9758C42.7379 12.4411 43.4748 12.0173 44.2703 11.7043C45.0789 11.3782 45.9462 11.2152 46.8722 11.2152C47.7199 11.2413 48.4763 11.3717 49.1414 11.6065C49.8196 11.8282 50.413 12.1281 50.9216 12.5063C51.4433 12.8715 51.8867 13.2888 52.2519 13.7584C52.6171 14.2279 52.917 14.7169 53.1518 15.2256C53.3865 15.7211 53.5561 16.2298 53.6604 16.7514C53.7648 17.2601 53.8169 17.7361 53.8169 18.1795ZM46.5592 11.939C46.1418 11.9651 45.7506 12.1999 45.3854 12.6433C45.0333 13.0867 44.7268 13.6931 44.466 14.4626C44.2182 15.219 44.0225 16.1124 43.8791 17.1427C43.7356 18.173 43.6639 19.2815 43.6639 20.4684C43.9899 20.8466 44.316 21.14 44.642 21.3487C44.9681 21.5573 45.268 21.7138 45.5419 21.8182C45.8158 21.9095 46.044 21.9682 46.2266 21.9942C46.4092 22.0203 46.52 22.0334 46.5592 22.0334C47.0678 22.0203 47.4851 21.9095 47.8112 21.7008C48.1503 21.4921 48.4111 21.2052 48.5937 20.84C48.7893 20.4749 48.9263 20.038 49.0045 19.5293C49.0828 19.0207 49.1219 18.4534 49.1219 17.8274C49.1219 17.0449 49.0697 16.3015 48.9654 15.5972C48.8741 14.8799 48.7241 14.2539 48.5154 13.7192C48.3198 13.1715 48.059 12.7411 47.7329 12.4281C47.4069 12.102 47.0156 11.939 46.5592 11.939Z" fill="white"/>
<path d="M56.2427 12.7411L64.9481 12.4868L64.6546 27.3153H67.9412V28.0391H55.7732V27.3153H59.0206L59.138 13.3671L56.2427 13.4649V12.7411ZM65.3785 7.51786C65.3393 8.02649 65.2024 8.50903 64.9677 8.96549C64.7459 9.40891 64.4525 9.80017 64.0873 10.1393C63.7222 10.4653 63.3048 10.7196 62.8353 10.9022C62.3658 11.0848 61.8767 11.163 61.3681 11.137C60.8334 11.1239 60.3443 11.0065 59.9009 10.7848C59.4575 10.5631 59.0793 10.2762 58.7663 9.92407C58.4533 9.5589 58.2185 9.14156 58.062 8.67205C57.9055 8.20255 57.8468 7.70044 57.886 7.16573C57.912 6.6571 58.0425 6.18107 58.2772 5.73765C58.512 5.29423 58.8054 4.91602 59.1575 4.60302C59.5227 4.27697 59.94 4.02918 60.4095 3.85964C60.8791 3.67705 61.3616 3.59228 61.8572 3.60532C62.3789 3.61836 62.8614 3.73574 63.3048 3.95745C63.7482 4.16612 64.1265 4.44652 64.4395 4.79864C64.7655 5.15077 65.0068 5.56159 65.1633 6.03109C65.3328 6.5006 65.4046 6.99619 65.3785 7.51786Z" fill="white"/>
<path d="M84.7846 22.0334L84.9803 28.4499L69.1149 28.8412L79.6201 12.2912L75.1989 12.252C74.6512 12.252 74.1686 12.3564 73.7513 12.565C73.334 12.7737 72.9688 13.0541 72.6558 13.4062C72.3428 13.7453 72.0754 14.1366 71.8537 14.58C71.645 15.0234 71.469 15.4733 71.3255 15.9298C71.1951 16.3863 71.0908 16.8362 71.0125 17.2796C70.9473 17.7231 70.9017 18.1208 70.8756 18.473L70.1518 18.3751L70.7582 11.4108L86.3888 11.6065L75.8445 28L80.8525 27.8044C81.296 27.8565 81.6807 27.7978 82.0067 27.6283C82.3458 27.4457 82.6327 27.1979 82.8675 26.8849C83.1023 26.5589 83.2979 26.1872 83.4544 25.7698C83.6109 25.3395 83.7348 24.9026 83.8261 24.4591C83.9174 24.0027 83.9761 23.5658 84.0021 23.1484C84.0413 22.7181 84.0608 22.3464 84.0608 22.0334H84.7846Z" fill="white"/>
<path d="M104.289 18.1795C104.289 18.8707 104.067 19.4967 103.624 20.0575C103.18 20.6053 102.606 21.0748 101.902 21.466C101.211 21.8573 100.435 22.1703 99.574 22.4051C98.7263 22.6268 97.8916 22.7441 97.07 22.7572C97.0178 22.7572 96.9005 22.7507 96.7179 22.7376C96.5353 22.7246 96.3136 22.6855 96.0527 22.6202C95.7919 22.542 95.4985 22.4246 95.1724 22.2681C94.8464 22.1116 94.5203 21.8834 94.1943 21.5834C94.2334 22.7441 94.3378 23.7418 94.5073 24.5765C94.6899 25.3981 94.9246 26.0763 95.2116 26.611C95.5115 27.1327 95.8571 27.5174 96.2484 27.7652C96.6527 28 97.0896 28.1174 97.5591 28.1174C97.833 28.1174 98.1981 28.0261 98.6546 27.8435C99.1241 27.6609 99.6066 27.3805 100.102 27.0023C100.611 26.6241 101.106 26.1415 101.589 25.5546C102.072 24.9678 102.476 24.2635 102.802 23.4419L103.369 21.9942L104.073 22.229L103.76 23.1093C103.474 23.8788 103.095 24.6091 102.626 25.3003C102.156 25.9915 101.609 26.611 100.983 27.1588C100.37 27.6935 99.6849 28.1239 98.9285 28.4499C98.172 28.789 97.3635 28.9846 96.5027 29.0368C95.0029 28.9846 93.7313 28.7173 92.688 28.2347C91.6446 27.7522 90.7969 27.1392 90.1448 26.3958C89.4927 25.6525 89.0167 24.8243 88.7167 23.9114C88.4298 22.9985 88.2864 22.079 88.2864 21.153C88.2864 20.5401 88.3777 19.875 88.5602 19.1577C88.7559 18.4273 89.0363 17.697 89.4014 16.9666C89.7666 16.2232 90.21 15.506 90.7317 14.8147C91.2664 14.1235 91.8663 13.5106 92.5315 12.9758C93.2096 12.4411 93.9465 12.0173 94.7421 11.7043C95.5506 11.3782 96.4179 11.2152 97.3439 11.2152C98.1916 11.2413 98.948 11.3717 99.6132 11.6065C100.291 11.8282 100.885 12.1281 101.393 12.5063C101.915 12.8715 102.358 13.2888 102.724 13.7584C103.089 14.2279 103.389 14.7169 103.624 15.2256C103.858 15.7211 104.028 16.2298 104.132 16.7514C104.236 17.2601 104.289 17.7361 104.289 18.1795ZM97.0309 11.939C96.6135 11.9651 96.2223 12.1999 95.8571 12.6433C95.505 13.0867 95.1985 13.6931 94.9377 14.4626C94.6899 15.219 94.4943 16.1124 94.3508 17.1427C94.2073 18.173 94.1356 19.2815 94.1356 20.4684C94.4616 20.8466 94.7877 21.14 95.1137 21.3487C95.4398 21.5573 95.7397 21.7138 96.0136 21.8182C96.2875 21.9095 96.5157 21.9682 96.6983 21.9942C96.8809 22.0203 96.9918 22.0334 97.0309 22.0334C97.5395 22.0203 97.9569 21.9095 98.2829 21.7008C98.622 21.4921 98.8828 21.2052 99.0654 20.84C99.261 20.4749 99.398 20.038 99.4762 19.5293C99.5545 19.0207 99.5936 18.4534 99.5936 17.8274C99.5936 17.0449 99.5414 16.3015 99.4371 15.5972C99.3458 14.8799 99.1958 14.2539 98.9872 13.7192C98.7915 13.1715 98.5307 12.7411 98.2046 12.4281C97.8786 12.102 97.4873 11.939 97.0309 11.939Z" fill="white"/>
<path d="M105.756 10.8044L115.576 10.5696L115.459 15.9102C115.694 15.3234 115.961 14.7626 116.261 14.2279C116.574 13.6801 116.926 13.191 117.317 12.7607C117.709 12.3303 118.146 11.9781 118.628 11.7043C119.111 11.4174 119.645 11.2413 120.232 11.1761C120.976 11.1761 121.673 11.313 122.325 11.5869C122.978 11.8477 123.571 12.2129 124.106 12.6824C124.653 13.1389 125.136 13.6801 125.553 14.3061C125.971 14.9321 126.323 15.5972 126.61 16.3015C126.897 17.0058 127.105 17.7296 127.236 18.473C127.366 19.2033 127.418 19.9206 127.392 20.6249C127.379 21.3552 127.36 22.1051 127.333 22.8746C127.307 23.5397 127.275 24.2766 127.236 25.0851C127.21 25.8807 127.17 26.6632 127.118 27.4327L129.877 27.4718V28.1956L119.019 27.9609V27.237L121.152 27.2762C121.465 23.794 121.543 20.2662 121.386 16.6928C121.426 15.0625 121.334 13.8757 121.113 13.1323C120.904 12.389 120.46 12.0042 119.782 11.9781C119.561 12.0434 119.267 12.1673 118.902 12.3498C118.537 12.5324 118.146 12.8519 117.728 13.3084C117.324 13.7518 116.913 14.3648 116.496 15.1473C116.091 15.9168 115.733 16.9145 115.42 18.1404L115.224 27.237H117.259V27.9609H107.086V27.237H108.847L109.238 11.45L105.756 11.5282V10.8044Z" fill="white"/>
<path d="M142.71 29.1542C142.097 29.1542 141.529 29.0433 141.008 28.8216C140.486 28.6129 140.017 28.3195 139.599 27.9413C139.195 27.5631 138.849 27.1197 138.562 26.611C138.276 26.0894 138.067 25.522 137.936 24.9091C137.35 25.5612 136.854 26.135 136.45 26.6306C136.058 27.1131 135.732 27.524 135.472 27.863C135.172 28.2543 134.924 28.5934 134.728 28.8803H133.046L132.968 2.95975H129.29V2.23593H138.817L138.621 13.9735C138.83 13.5432 139.143 13.1584 139.56 12.8193C139.978 12.4803 140.421 12.1999 140.89 11.9781C141.36 11.7434 141.816 11.5673 142.26 11.45C142.716 11.3195 143.094 11.2543 143.394 11.2543C144.36 11.2543 145.207 11.4108 145.938 11.7238C146.681 12.0368 147.327 12.4542 147.874 12.9758C148.422 13.4845 148.885 14.0648 149.263 14.7169C149.641 15.356 149.941 16.0015 150.163 16.6536C150.398 17.3057 150.561 17.9382 150.652 18.5512C150.757 19.1642 150.809 19.6858 150.809 20.1162C150.809 20.5466 150.75 21.0748 150.633 21.7008C150.515 22.3138 150.326 22.9528 150.065 23.6179C149.804 24.2831 149.465 24.9482 149.048 25.6133C148.631 26.2785 148.122 26.8719 147.522 27.3935C146.922 27.9152 146.225 28.3391 145.429 28.6651C144.633 28.9912 143.727 29.1542 142.71 29.1542ZM141.869 12.2912C141.621 12.3824 141.353 12.5063 141.066 12.6628C140.78 12.8193 140.493 13.0215 140.206 13.2693C139.932 13.5171 139.658 13.817 139.384 14.1692C139.11 14.5213 138.856 14.9386 138.621 15.4212L138.504 23.6766C138.517 24.094 138.589 24.557 138.719 25.0656C138.849 25.5742 139.038 26.0568 139.286 26.5132C139.547 26.9697 139.873 27.3544 140.264 27.6674C140.656 27.9674 141.125 28.1174 141.673 28.1174C142.051 28.1174 142.423 27.9935 142.788 27.7457C143.166 27.4848 143.499 27.0545 143.786 26.4545C144.073 25.8416 144.301 25.0265 144.47 24.0092C144.653 22.9919 144.744 21.7204 144.744 20.1945C144.744 18.5642 144.646 17.234 144.451 16.2037C144.255 15.1734 144.014 14.3648 143.727 13.7779C143.44 13.191 143.127 12.7933 142.788 12.5846C142.449 12.3759 142.142 12.2781 141.869 12.2912Z" fill="white"/>
<path d="M171.682 12.4868L171.193 27.4327L173.228 27.237L173.306 27.9609L165.696 28.6456L165.735 25.4373C165.513 25.9198 165.285 26.3437 165.05 26.7088C164.816 27.074 164.574 27.3935 164.327 27.6674C164.092 27.9283 163.857 28.15 163.622 28.3325C163.388 28.5282 163.166 28.6847 162.957 28.8021C162.462 29.089 161.972 29.252 161.49 29.2911C160.355 29.2911 159.364 29.0629 158.516 28.6064C157.669 28.163 156.964 27.5696 156.404 26.8262C155.843 26.0828 155.419 25.2416 155.132 24.3026C154.858 23.3506 154.721 22.379 154.721 21.3878L155.132 13.0541L152.804 13.015V12.2912L161.333 12.4085C161.047 14.7952 160.825 16.8101 160.668 18.4534C160.525 20.0836 160.42 21.4074 160.355 22.4246C160.277 23.6245 160.231 24.5896 160.218 25.3199C160.218 25.9981 160.271 26.5458 160.375 26.9632C160.479 27.3805 160.616 27.7065 160.786 27.9413C160.955 28.176 161.138 28.3325 161.333 28.4108C161.529 28.5021 161.718 28.5543 161.901 28.5673C162.175 28.5021 162.475 28.3717 162.801 28.176C163.14 27.9804 163.479 27.6805 163.818 27.2762C164.17 26.8588 164.509 26.3176 164.835 25.6525C165.161 24.9873 165.461 24.1657 165.735 23.1876L165.872 13.1715L162.977 13.1323V12.4085L171.682 12.4868Z" fill="white"/>
<path d="M183.635 11.2543C184.483 11.2543 185.246 11.463 185.924 11.8803C186.615 12.2846 187.254 12.8519 187.841 13.5823V11.8999H196.331V12.6628H193.612V28.6847C193.612 30.4323 193.325 31.9516 192.751 33.2428C192.19 34.5339 191.46 35.6033 190.56 36.4511C189.66 37.3118 188.649 37.9509 187.528 38.3682C186.406 38.7986 185.298 39.0138 184.202 39.0138C183.237 39.0138 182.272 38.9094 181.307 38.7008C180.342 38.5051 179.475 38.1856 178.705 37.7422C177.936 37.3118 177.31 36.7575 176.827 36.0794C176.345 35.4012 176.103 34.5796 176.103 33.6145C176.103 33.2102 176.162 32.8124 176.279 32.4212C176.41 32.0429 176.599 31.7039 176.847 31.4039C177.107 31.1039 177.434 30.8627 177.825 30.6801C178.216 30.4975 178.686 30.4062 179.233 30.4062C179.716 30.4062 180.127 30.504 180.466 30.6996C180.818 30.9083 181.105 31.1691 181.326 31.4821C181.548 31.7951 181.705 32.1407 181.796 32.519C181.9 32.9102 181.952 33.2884 181.952 33.6536C181.952 33.9927 181.92 34.3122 181.855 34.6122C181.789 34.9252 181.757 35.2317 181.757 35.5316C181.757 35.8707 181.789 36.2033 181.855 36.5293C181.933 36.8554 182.057 37.1423 182.226 37.3901C182.409 37.6509 182.644 37.8596 182.931 38.0161C183.218 38.1856 183.583 38.2769 184.026 38.29C184.691 38.2378 185.259 37.99 185.728 37.5466C186.211 37.1031 186.608 36.5293 186.921 35.8251C187.234 35.1208 187.463 34.3187 187.606 33.4188C187.763 32.519 187.841 31.593 187.841 30.6409V26.7088C187.841 26.9436 187.73 27.1979 187.508 27.4718C187.287 27.7457 186.987 28 186.608 28.2347C186.243 28.4825 185.819 28.6912 185.337 28.8607C184.854 29.0303 184.352 29.1281 183.831 29.1542C182.813 29.1542 181.907 29.0238 181.111 28.7629C180.329 28.5021 179.638 28.1565 179.038 27.7261C178.451 27.2827 177.955 26.7741 177.551 26.2002C177.147 25.6133 176.821 25.0004 176.573 24.3613C176.325 23.7092 176.142 23.0441 176.025 22.3659C175.921 21.6878 175.868 21.0422 175.868 20.4292C175.868 19.9988 175.927 19.4707 176.045 18.8446C176.162 18.2186 176.345 17.5666 176.592 16.8884C176.853 16.2102 177.186 15.5386 177.59 14.8734C177.994 14.1953 178.483 13.5888 179.057 13.0541C179.631 12.5194 180.296 12.089 181.053 11.763C181.809 11.4239 182.67 11.2543 183.635 11.2543ZM187.841 15.0495C187.476 14.2409 187.039 13.6279 186.53 13.2106C186.022 12.7802 185.539 12.4737 185.083 12.2912C184.887 12.2912 184.672 12.3433 184.437 12.4477C184.215 12.552 183.987 12.728 183.752 12.9758C183.531 13.2236 183.309 13.5627 183.087 13.9931C182.878 14.4235 182.689 14.9712 182.52 15.6364C182.363 16.2885 182.233 17.071 182.129 17.9839C182.037 18.8838 181.992 19.9402 181.992 21.153C181.992 22.4703 182.076 23.5723 182.246 24.4591C182.429 25.346 182.663 26.0568 182.95 26.5915C183.25 27.1131 183.583 27.4848 183.948 27.7065C184.326 27.9283 184.704 28.0391 185.083 28.0391C185.382 28.0391 185.689 27.9478 186.002 27.7652C186.315 27.5826 186.602 27.3088 186.863 26.9436C187.124 26.5784 187.339 26.1285 187.508 25.5938C187.678 25.046 187.763 24.42 187.763 23.7158C187.763 23.6636 187.763 23.5984 187.763 23.5201C187.763 23.4419 187.763 23.3049 187.763 23.1093C187.763 22.9137 187.763 22.6333 187.763 22.2681C187.776 21.9029 187.782 21.4074 187.782 20.7814C187.795 20.1553 187.802 19.3794 187.802 18.4534C187.815 17.5144 187.828 16.3798 187.841 15.0495Z" fill="white"/>
</svg>
